# xmcd
#
# Track frame offsets:
#	150
#	16033
#	110336
#	127204
#	169655
#	211693
#	220025
#	250521
#	309339
#
# Disc length: 4410 seconds
#
# Revision: 1
# Processed by: cddbd v1.5.2PL0 Copyright (c) Steve Scherf et al.
# Submitted via: audiograbber 1.83.01
#
DISCID=6b113809
DTITLE=Grateful Dead - 69-06-07 Fillmore West, San Francisco CA
DYEAR=1900
DGENRE=
TTITLE0=Me and My Uncle
TTITLE1=Turn On Your Lovelight
TTITLE2=I Know You Rider
TTITLE3=Black Peter
TTITLE4=Not Fade Away
TTITLE5=Good Lovin'
TTITLE6=Drums
TTITLE7=The Other One
TTITLE8=Cumberland Blues
EXTD=
EXTT0=
EXTT1=
EXTT2=
EXTT3=
EXTT4=
EXTT5=
EXTT6=
EXTT7=
EXTT8=
PLAYORDER=
